<?xml version="1.0" standalone="no"?>
<!DOCTYPE svg PUBLIC "-//W3C//DTD SVG 20010904//EN"
 "http://www.w3.org/TR/2001/REC-SVG-20010904/DTD/svg10.dtd">
<svg version="1.0" xmlns="http://www.w3.org/2000/svg"
 width="750.000000pt" height="750.000000pt" viewBox="0 0 750.000000 750.000000"
 preserveAspectRatio="xMidYMid meet">
<metadata>
Created by potrace 1.14, written by Peter Selinger 2001-2017
</metadata>
<g transform="translate(0.000000,750.000000) scale(0.100000,-0.100000)"
fill="#000000" stroke="none">
<path d="M3768 7076 c-1 -2 -50 -6 -108 -10 -58 -3 -116 -8 -130 -10 -23 -4
-58 -9 -160 -22 -19 -3 -46 -7 -60 -10 -14 -3 -36 -8 -50 -10 -83 -14 -303
-72 -377 -101 -10 -3 -20 -7 -23 -8 -24 -6 -89 -30 -105 -38 -11 -6 -24 -12
-30 -13 -5 -1 -32 -12 -60 -25 l-50 -24 -30 28 c-33 30 -106 56 -147 52 -42
-5 -98 -26 -98 -36 0 -6 -4 -8 -8 -5 -10 6 -122 -85 -170 -137 -37 -43 -108
-152 -140 -217 -28 -58 -84 -231 -77 -238 2 -3 1 -10 -4 -16 -5 -6 -12 -35
-15 -65 -4 -29 -9 -58 -13 -63 -3 -6 -7 -90 -9 -187 -2 -97 -3 -179 -4 -182 0
-4 -16 -23 -35 -44 -19 -21 -32 -42 -29 -47 3 -4 1 -8 -3 -8 -20 0 -100 -190
-88 -209 3 -5 1 -11 -4 -13 -16 -6 -26 -109 -26 -278 0 -207 12 -301 61 -495
28 -110 91 -301 124 -380 l17 -40 -32 -45 c-61 -83 -67 -125 -67 -468 0 -332
2 -350 34 -420 24 -50 103 -142 123 -142 7 0 18 -7 25 -15 7 -8 16 -13 20 -10
5 3 11 1 15 -5 4 -6 11 -8 16 -5 5 4 9 3 9 -2 0 -4 15 -9 33 -11 17 -1 41 -4
52 -6 11 -3 23 -5 28 -5 4 -1 7 -11 7 -23 0 -20 19 -92 72 -280 6 -21 13 -38
17 -38 4 0 7 -9 8 -20 5 -62 207 -412 271 -467 14 -13 22 -23 18 -23 -15 0
184 -201 207 -209 7 -2 18 -12 25 -23 7 -10 20 -18 28 -18 8 0 14 -4 14 -9 0
-11 101 -77 112 -74 5 2 8 -1 8 -7 0 -5 12 -16 28 -24 15 -8 38 -25 52 -37 23
-22 25 -31 24 -99 -1 -41 -2 -82 -3 -91 0 -9 -16 -23 -33 -30 -102 -42 -259
-195 -315 -307 -33 -66 -40 -73 -77 -84 -51 -14 -47 -13 -71 -22 -11 -4 -33
-13 -50 -18 -50 -18 -170 -70 -175 -77 -3 -3 -12 -7 -20 -9 -26 -6 -240 -131
-260 -152 -3 -3 -21 -16 -40 -29 -90 -63 -271 -246 -336 -342 -68 -98 -127
-207 -119 -219 3 -6 2 -10 -4 -10 -9 0 -35 -62 -36 -85 0 -5 -3 -14 -6 -20
-11 -18 -28 -79 -35 -120 -3 -22 -9 -59 -14 -82 l-7 -43 2288 0 2288 0 -5 39
c-6 40 -23 119 -43 200 -17 64 -108 260 -132 281 -3 3 -16 23 -29 45 -13 22
-29 45 -35 52 -5 6 -28 33 -50 59 -72 85 -237 240 -248 232 -3 -2 -13 6 -23
18 -29 33 -294 193 -294 178 0 -3 -6 1 -14 9 -16 16 -133 63 -253 102 l-81 27
-32 64 c-17 35 -41 75 -53 90 -68 82 -90 103 -100 97 -6 -4 -7 -1 -3 6 5 8 0
14 -13 18 -12 3 -21 9 -21 13 0 10 -76 62 -131 90 -21 11 -39 26 -40 33 -1 6
-2 46 -3 87 -1 69 1 77 26 102 15 14 36 29 47 33 12 3 21 11 21 16 0 5 6 9 13
9 6 0 23 9 37 20 14 11 54 41 90 67 62 45 270 242 270 256 0 3 10 17 23 31 22
23 147 202 147 210 0 2 18 35 39 75 75 136 176 429 180 523 1 9 8 15 17 14 37
-6 122 15 172 41 51 27 122 92 122 112 0 5 4 11 9 13 5 2 18 30 29 63 19 56
21 81 18 395 -1 184 -5 344 -8 355 -10 36 -47 99 -78 134 -17 18 -30 36 -30
40 0 3 9 36 19 74 11 37 18 67 16 67 -3 0 0 12 6 26 5 15 12 42 15 62 3 19 8
44 10 56 3 11 7 32 10 46 2 14 7 36 9 50 3 14 8 36 10 50 6 30 13 88 20 155 2
28 7 61 10 74 2 14 5 65 7 113 l2 88 43 38 c61 54 82 109 78 201 -2 41 -8 95
-14 120 -6 25 -13 63 -16 85 -3 21 -7 42 -10 46 -3 4 -7 24 -11 45 -3 21 -17
71 -30 113 l-25 75 36 35 c50 49 67 87 70 152 2 42 -4 66 -22 100 -42 79 -64
115 -81 128 -9 6 -12 12 -8 12 9 0 -48 75 -86 113 -15 15 -25 27 -20 27 10 0
-145 150 -193 185 -22 17 -49 38 -59 48 -11 9 -25 17 -32 17 -7 0 -14 4 -16 9
-9 24 -232 142 -341 181 -41 15 -53 26 -77 68 -31 53 -83 93 -131 98 -28 3
-44 6 -99 18 -14 3 -43 8 -65 10 -22 3 -84 10 -137 16 -53 6 -123 13 -155 16
-69 5 -540 14 -545 10z"/>
</g>
</svg>
